<svg width="1200" height="250" xmlns="http://www.w3.org/2000/svg" xmlns:svg="http://www.w3.org/2000/svg">
 <g>
  <title>Layer 1</title>
  <path fill-rule="evenodd" clip-rule="evenodd" fill="#d3d3d3" d="m16.00277,162.13615l12.4558,0l0,27.84389l12.4558,0l0,8.05993l11.72402,0l0,5.12765l9.52866,0l0,-70.64298c-3.54555,-2.51487 -5.85944,-6.66336 -5.85944,-11.33751c0,-7.67343 6.22533,-13.8936 13.89876,-13.8936s13.89876,6.22017 13.89876,13.8936c0,4.91636 -2.55093,9.23492 -6.40054,11.70341l0,72.65282l28.05518,1.46357l0,-8.96695l1.46357,0l0,9.33284l21.98446,0.91731l0,-13.54832l13.18759,0l0,2.20051l23.44803,0l0,-21.98446l0.73179,0l0,21.98446l1.09768,0l0,-2.20051l8.05993,1.6491l0,0.54626l0,6.23047l4.76176,0l0,-38.10433l15.16133,-23.22644l15.98074,23.22644l0,36.26973l2.20051,0l0,-6.23047l6.22533,0l0,-93.42623l3.29819,-0.73179l0,-9.89455l9.42044,-2.01499l12.19813,2.01499l0,9.89455l2.92714,0.73179l0,63.38699l7.92079,-6.58091l7.47245,6.58091l0,7.32815l2.56641,0l0,-10.2656l6.96226,-2.55609l0,-26.01442l3.29819,0l0,-7.32815l3.66408,0l0,2.56125l8.42583,0l0,-16.48578l4.76176,0l0,16.48578l6.96226,0l0,-2.92714l4.02998,0l0,7.69404l3.66408,0l0,34.44027l5.49355,0l0,-19.15009l17.03204,-1.37081l8.97724,2.00983l0,-8.23516l4.40101,0l0,12.4558l7.8538,0l4.23096,3.81868l0,21.09292l12.08991,0l0,-7.32815l10.62634,0l0,-10.99223l1.09768,0l0,10.99223l2.56641,0l0,2.56641l4.39587,0l0,-24.74153l11.10561,-1.63878l17.83596,2.1902l0,20.52605l19.41806,0l0,-16.48578l6.22533,0l0,-4.40101l9.15761,0l0,4.40101l3.29819,0l0,-18.32038l3.29819,0l0,-4.40101l9.5235,0l0,4.40101l6.23047,0l0,-3.66408l5.12765,0l0,3.66408l1.82946,0l0,44.33482l15.75399,0l0,16.11989l14.65116,0l0,-1.83462l6.59636,0l0,1.83462l5.49355,0l0,14.28527l4.76176,0l0,-3.29819l15.3881,0l0,-1.46357l2.19536,0l0,-2.56641l2.19536,0l0,2.56641l5.12765,0l0,1.46357l1.10284,0l0,3.29819l2.56641,0l0,4.02482l11.72402,0l0,7.20448l23.1852,0l0,18.43891l-71.80766,0l-508.25539,0l-8.05993,0l0,-18.43891l8.05993,0l0,-18.19155l5.85944,0l0,-41.02632l0.01545,0l-0.00014,-0.00007l-0.00001,-0.00004zm48.36478,-28.32831l0,17.74319l1.82431,0l0,-17.05265c-0.62871,-0.19068 -1.23682,-0.42259 -1.82431,-0.69056l0,0l0,0.00002zm7.85895,1.13374l0,16.60945l1.46357,0l0,-16.89803c-0.47927,0.11853 -0.96885,0.22159 -1.46357,0.28858l0,0zm-7.85895,35.81107l0,11.33751l1.82431,0l0,-11.33751l-1.82431,0l0,0zm7.85895,0l0,11.33751l1.46357,0l0,-11.33751l-1.46357,0z" id="svg_1"/>
  <path fill-rule="evenodd" clip-rule="evenodd" fill="#999999" d="m2.20777,213.99966l3.45528,0l0,-8.20497l-0.77248,0l0,-4.90106l2.58363,0l2.12432,-9.29062l0.21399,0l-1.80592,9.29062l4.19643,0l2.04081,1.68065l0,2.41138l0.70462,0l0,9.01921l0.70462,0l0,-1.48754l1.41447,0l0,-1.20048l1.42491,0l0,-6.16939l0.60546,0l0,-0.76204l-1.29964,0l0,-0.58458l0.69418,0l0,-1.58149l-0.37057,0l0,-0.64722l0.37057,0l0,-3.40829l0.56891,0l1.99382,-8.3459l0.33926,0l-1.75896,8.3459l0,2.86026l0,2.77675l1.81636,0l1.15872,-2.84982l3.69015,0l0,0.21399l0.81424,-1.24224l2.40617,-17.54778l1.69109,0l0,-5.10984l-0.57414,0l0,-3.61186l1.09086,0l0.60023,-4.42087l0,-3.27782l0.27141,0l0,3.27782l0.60546,4.42087l1.08565,0l0,3.59619l-0.55848,0l0,5.10984l1.43012,0l0,-2.36442l20.15228,-0.46452l6.5504,0.46452l0,22.59498l1.74852,0l0,-0.66287l6.16939,0c0,-3.3561 0,-6.71743 0,-10.06309c2.60972,-2.6306 6.15372,-4.15469 10.48064,-4.78101c0,-0.35492 0,-0.74117 0,-1.12218l23.10128,0l0,14.59879l0.93428,0.64199l0,16.94754l1.08042,0l0,-3.07948l2.45314,0l0,0.64722l2.07734,0l0,0.78292l4.21209,-0.87687l0,-12.60496l1.08565,0l0,-2.68802l0.75161,0l0,-1.32575l0.55848,0l0,-0.49584l0.20878,0l0,0.49584l0.55848,0l0,1.32575l5.32906,-12.13521l1.32052,0l0,-4.28517l0.68897,0l0,-2.68279l0.21922,0l0,2.68279l0.66809,0l0,4.28517l1.32052,0l5.3395,12.13521l0,-1.32575l0.54804,0l0,-0.49584l0.21399,0l0,0.49584l0.55326,0l0,1.32575l0.75161,0l0,2.68802l0.65765,-0.49584l0,-2.47924l1.42491,0l0,-5.24032l0.49584,0l0,-0.65243c0,-1.2892 1.07521,-2.3331 2.34875,-2.3331l0,0c1.29964,0 2.35919,1.0439 2.35919,2.3331l0,0.65243l0.51151,0l0,3.37177l2.42705,0l0,-1.57627l0.43321,0l0,-1.05433l0.21399,0l0,1.05433l0.86643,0l0,-2.21304l0.18267,0l0,2.21304l1.96773,0l0,0.17746l2.33831,0l0,1.25268l1.31531,0.48019l0,7.23415l1.29443,0l0,1.24745l1.02302,0l0,-0.38624l1.77461,-0.61067l0,-15.59049l4.5879,0l0,-3.23606l1.08042,0l0,-0.92907l1.95207,0l0,0.92907l3.94591,0l0,-8.6173l1.14829,0l0,-1.20569l4.30604,0l0,1.20569l3.78932,0l0,-22.92902l0.30273,0l0,22.92902l4.87496,0l0,-2.64627l0.43844,0l0,2.64627l2.55753,0l0,-0.9917l0.50628,0l0,-0.87687l0.21399,0l0,0.87687l1.51886,0l0,0.9917l0.43321,0l0,39.9653l0.98647,0.52716l0,1.76939l3.80497,0l0,-15.06854l0.12004,0l0,-11.91599l0.17223,0l0,11.91599l0.75682,0l0,-2.53144l1.24745,0l0,-45.52402l1.14829,0l0,-12.68325l2.84459,0l0.65243,-5.89798l0,-3.53356l3.116,0l1.03867,-3.29347l0,-0.62111l2.07212,0l0,-14.50484l1.40924,0l0,-0.85599l-0.73594,0l0,-0.80901l0.73594,0l0,-1.85812l0.73073,0l0,-14.75016l0.22443,0l0,-4.74448l-0.13048,0l0,-2.80806l0.45409,0l0,2.80806l-0.13048,0l0,4.74448l0.22966,0l0,14.75016l0.7255,0l0,1.86856l0.7255,0l0,0.80901l-0.7255,0l0,0.85599l1.41447,0l0,14.50484l2.0669,0l0,0.62111l1.03867,3.29347l3.116,0l0,3.53356l0.64722,5.89798l2.85503,0l0,12.68325l1.14306,0l0,45.19518l1.56062,0.98126l5.73616,0l0,-2.7611l3.22039,0l0,2.7611l0.65243,0l0,-2.67236l4.78624,-0.92907l0,-0.74638l7.56298,0l0,-14.86499l1.37271,0l0,-2.0669l7.87092,-0.77248l8.29892,0.77248l0,2.0669l1.89466,0l0,20.56463l5.85099,4.04507l0,11.85859l1.91554,0l0,-1.27355l1.87378,-1.46666l0,-26.32167l1.89466,0l0,-7.24981l5.85099,2.0669l0,-5.50652l4.5357,0l0,-5.85099l2.22871,0l0,-1.29964l1.57105,0l0,-4.81755l0.56891,0l0,-21.6085l0.43321,0l0,21.6085l0.58979,0l0,4.81755l1.56583,0l0,6.36773l2.20783,0.78292l4.53047,0l0,6.93143l10.70509,1.47188l0,12.28136l0.86643,0l0,-32.31359l6.11719,-4.9637l1.9573,0l0,-30.97741l0.34449,0l0,30.97741l1.24224,0l0,-2.57319l0.50107,0l0,2.57319l1.51363,0l0,-2.89157l1.80592,0l0,-0.62634l0.94472,0l0,0.62634l0.40712,0l0,2.89157l0.63155,0l0,7.26025l3.02728,2.93854l0,16.8849l7.11411,0l0,-4.98458l3.72146,-0.65243l2.99074,0.65243l0,11.04958l5.3395,1.68065l0,-10.15183l12.56321,0l0,-1.03346l6.18504,0l0,1.03346c0.27662,0 0.55848,0 0.85077,0c5.07853,-3.4344 9.84387,-2.87591 14.26474,0.20355l0,11.45668l0.76204,0l0,-3.1943l8.42419,-0.67853l0,-5.51696l3.09512,-9.71339l0,-1.45623l1.54495,0l0,-1.02823l1.19525,-0.35492l2.33831,0.35492l0,1.02823l1.46666,0l0,1.45623l2.31222,6.22679l1.2892,0l0,-0.60023l0.43321,0l0,-1.34663l0.20355,0l0,1.34663l0.35492,0l0,0.60023l0.98647,0l0,-0.53239l3.92503,0l0,0.53239l0.89252,0l0,-0.74638l0.21399,0l0,-2.53144l17.7409,0l0,-1.47188l3.05337,0l0,0.70462l8.30415,0l0,5.36038l1.03867,1.45623l0,5.96582l1.13262,0l0,-7.96487l1.80592,0.33926l0,7.62562l1.26832,0l0,-12.21351l13.01208,-2.57841l0.65765,0.32882l0,0.70462l4.22774,0l0.60023,1.55018l0,17.72002l1.11174,0l0,-24.94374l5.5796,0l0,-2.66192l21.50411,0l0,6.53475l6.32597,0l1.91554,3.3561l5.74139,0l0,-15.26167l32.86163,0l0,13.23651l1.73808,0l0,9.47329l7.55775,0l0,-4.6453l1.12218,0l0,-4.46784l1.10653,0l0,-9.53072c0,-0.40712 0.28706,-0.78292 0.69418,-0.89775l0,-2.55232c0,-0.37057 0.24531,-0.67853 0.60023,-0.77248l0,-2.66715c0,-0.39668 0.30273,-0.71506 0.70985,-0.71506l0.06263,0l0,-2.0669c0,-0.30273 0.26097,-0.5637 0.5637,-0.5637l0.8038,0l0,-3.58576c0,-0.17746 0.1618,-0.32882 0.33926,-0.32882l0.60023,0l0,-6.96275c0,-0.48019 0.08872,-0.86643 0.19311,-0.86643l0.76204,0l0,-5.49086c0,-0.72029 0.00521,-1.31008 0.01044,-1.31008l0.22443,0c0,0 0.01044,0.58979 0.01044,1.31008l0,5.49086l0.76204,0c0.09395,0 0.19311,0.38624 0.19311,0.86643l0,6.96275l0.60546,0c0.16702,0 0.33926,0.15136 0.33926,0.32882l0,3.58576l0.79857,0c0.30273,0 0.55848,0.26618 0.55848,0.5637l0,2.0669l0.06784,0c0.38624,0 0.70985,0.31838 0.70985,0.71506l0,2.66715c0.35492,0.09916 0.60023,0.40189 0.60023,0.77248l0,2.55232c0.41233,0.1096 0.70462,0.49063 0.70462,0.89775l0,8.66949l18.01231,2.49489l0,1.82159l7.20283,0l0,9.99524l0.93951,0l0,0.89775l4.82799,0l0,52.11095l-594.99603,0l0,-17.2033l3.50747,0l0,-18.37244l0.00521,0l0.00019,0.00016l0.00004,-0.00003zm103.16237,11.14353l0,-2.45837l-1.08042,0l0,2.45837l1.08042,0l0,0zm181.22962,-43.74418l1.79548,0l0,-5.37082l-1.79548,0l0,5.37082l0,0zm6.52952,-0.60023l0,0.60023l1.64934,0l-1.64934,-0.60023z" id="svg_2"/>
  <path fill-rule="evenodd" clip-rule="evenodd" fill="#d3d3d3" d="m596.23403,232.19388l0,-39.7637l6.70502,0l6.70502,-8.26864l9.80047,0l0,4.12901l3.35516,0l0,-3.92761l4.35163,0l0,4.26154l2.70851,0l0,38.12588l10.2192,0l0,-33.05338l9.0266,0l0,-51.12779l6.19088,-12.91712l26.05153,0l7.7386,13.42594l0,23.24761l2.32158,0l0,-4.12901l4.64315,0l0,10.58492l8.25805,0l0,-5.16789l7.47358,0l0,5.16789l4.38874,0l0,-4.64845l19.08678,0l0,-13.42594l3.60957,0l0,-5.68204l10.57962,0l0,5.68204l7.99302,0l0,48.80621l11.86232,0l0,-19.108l14.69804,-13.42594l11.86232,0l0,-13.94538l50.55004,0l0,6.71562l9.28633,0l0,-10.59022l4.64315,0l0,-6.45591l11.34818,0l0,-4.90818l9.0319,0l0,51.3875l12.8959,0l0,4.90818l6.95943,0l0,-18.59385l12.12205,0l0,-49.83448l4.63786,0l0,-12.39768l7.48419,-13.43124l8.50716,14.20511l0,11.36409l3.61489,0l0,43.12945l44.35916,0l0,3.8693l3.864,0l0,47.77793l8.51246,0l0,-5.93647l24.2441,0l0,-93.84911l26.34835,-26.52327l0,-27.03211l4.79158,-4.79158l0,150.56354l11.97893,0l0,11.98423l15.73692,0l0,-173.15391l4.10782,0l0,18.13802l27.37664,29.08336l0,124.55972l27.03741,0l0,-46.53762l2.5972,0l0,-7.56899l7.22446,0l0,-16.18216l2.92054,3.78449l0,12.56727l7.56899,0l0,5.34281l3.9541,0l0,47.5129l39.37676,0l0,7.92412l-602.66227,0c0,-0.0053 0,-1.73324 -0.04771,-1.87104l0.00006,0.00002l0.00003,0.00001z" id="svg_3"/>
  <path fill-rule="evenodd" clip-rule="evenodd" fill="#999999" d="m593.02503,250.16544l0,-28.91216l1.9659,0l0,2.84672l2.70112,0l0,-3.33994l2.45606,0l0,-24.6126l0,0l0,-18.96206l5.73257,11.60132l0,-1.43677l1.86469,0l0,-3.28097l6.81409,0l0,6.40111l4.18223,0l0,3.2756l4.49656,0l0,2.03184l5.43424,0l0,2.65372l3.09537,0l0,-3.43644l5.4289,0l0,3.59191l5.73257,0l0,7.65558l5.42358,0l0,2.65372l1.86469,0l0,19.20866l7.21366,-4.18699l7.35751,0l0,-32.50945l11.84875,-6.87823l0,-4.43359c-0.9057,-0.33238 -1.55568,-1.20625 -1.55568,-2.22484c0,-1.30274 1.04955,-2.35887 2.3495,-2.35887c1.28929,0 2.33884,1.05612 2.33884,2.35887c0,1.00252 -0.618,1.86029 -1.49707,2.20339l0,4.30492l10.15455,5.90789l0,34.8844l2.95686,5.14126l3.8093,0l0,-35.44195l4.03305,-4.05832l8.21528,0l0,-6.87823l16.28137,-5.93469l0,-3.90821l13.79868,0l0,5.31281l3.2552,0l0,-2.49825l16.59038,0l7.10713,4.12802l0,2.12297l4.36337,2.54114l0,19.17651l3.10071,0l0,1.87637l13.47901,0l0,2.13907l4.93343,0l0,15.35942l2.31755,0l0,-35.53307l24.36344,-9.61773l50.26126,0l0,30.17738l4.88016,4.91074l0,9.06018l8.51895,0l0,-5.46291l7.6612,4.44967l0,-4.92144l14.41669,0l0,14.71074l10.33569,-6.00439l8.8386,5.13054l0,-7.03371l2.13107,0l0,-5.07156l4.93875,0l0,5.56479l2.61588,0l0,6.82463l3.29251,0l0,-5.84891l9.97873,0l0,4.76599l11.19344,0l0,-4.42287l2.72244,0l0,7.32321l10.14389,0l2.66383,-4.63731l0,-3.14157l2.6372,0l0,3.20592l5.15186,5.18414l0,-3.04507l6.80877,0l8.71075,-8.76533l0,-2.67517l14.45398,0l0,-29.29281l11.98726,0l0,-6.92113l14.95479,0l0,4.57834l4.73631,0l13.63352,0l0,34.9112l7.38416,0l0,-96.02724l6.24936,0l0,-1.52255l1.51306,0l0,1.82812l15.61008,0l0,-2.74487l2.87694,0l0,2.28917l3.34046,0l0,44.88812l2.64785,-2.6698l0,-5.11444l2.77572,-1.61367l0,-6.63163l6.03092,-3.50077l9.44597,0l0,14.03524l5.00269,8.72243l0,19.62683l22.09918,0l0,4.36926l3.2552,0l0,30.75638l6.35059,0l0,-2.18732l3.24988,0l0,-2.34277l2.63188,0l0,-2.49825l2.78638,0l0,8.89935l13.63884,0l0,-3.59191l7.59194,0l0,1.71554l20.76194,0l0,22.00713l-606.91792,-1.17942l0,0l-0.00008,-0.00008l0.00004,0zm7.90627,-54.018l4.96006,0l0,-3.76882l-4.96006,-10.42725l0,14.19607z" id="svg_4"/>
 </g>
</svg>